<svg width="107" height="39" viewBox="0 0 107 39" fill="none" xmlns="http://www.w3.org/2000/svg">
<path d="M25.2666 17.2051C25.6312 17.2051 25.9831 17.2246 26.3477 17.2637C26.5495 17.2832 26.7522 17.3092 26.9541 17.3418C27.3186 17.4004 27.683 17.4854 28.041 17.583C28.6075 17.7328 29.1809 17.9407 29.7344 18.2012C29.9688 18.3119 30.1966 18.4235 30.418 18.5537C30.6198 18.6579 30.8347 18.7878 31.043 18.918H31.0498V18.9248C34.4882 21.1585 36.3572 25.0725 35.9209 29.1426C35.6212 32.0143 34.2144 34.5868 31.9678 36.3906C30.0403 37.9533 27.7026 38.7802 25.2217 38.7803C24.8375 38.7803 24.4399 38.7608 24.0557 38.7217C19.927 38.2723 16.4822 35.5694 15.0625 31.6621L14.958 31.376L15.2383 31.252C15.668 31.0631 16.0393 30.8744 16.3779 30.6855L16.7168 30.4902L16.8467 30.8613C17.9668 34.0914 20.8715 36.4097 24.2578 36.7744C24.5508 36.8135 24.8636 36.8262 25.2217 36.8262C27.2468 36.8261 29.1546 36.1493 30.75 34.873C32.5929 33.3883 33.7391 31.2782 33.9932 28.9404C34.3644 25.3978 32.5995 21.9985 29.4932 20.2793C29.2913 20.1556 29.07 20.0443 28.8096 19.9336C28.5687 19.8164 28.3147 19.7194 28.0088 19.6152C27.4163 19.4134 26.7911 19.2757 26.1465 19.2041C25.912 19.1715 25.6768 19.1592 25.4229 19.1592H25.1953C24.8567 19.1592 24.4916 19.1849 24.127 19.2305C23.8797 19.2565 23.6389 19.2959 23.3721 19.3545C23.1311 19.4066 22.8962 19.4655 22.6748 19.5371L22.2451 19.6797L22.1348 19.2627C22.0827 18.8721 22.0039 18.4489 21.9062 18.0518L21.835 17.7588L22.1221 17.6611C22.2652 17.6156 22.4213 17.5696 22.5645 17.5371C22.7856 17.4786 22.9549 17.4398 23.124 17.4072C23.1501 17.4007 23.2031 17.3874 23.2617 17.3809C23.4504 17.3418 23.6456 17.3096 23.8408 17.29L23.8535 17.2773H23.9648C24.1602 17.2513 24.4014 17.2318 24.6357 17.2188C24.8245 17.2058 25.0004 17.2051 25.1826 17.2051H25.2666ZM75.6836 14.6113C79.262 13.1338 83.9377 14.0586 85.7422 17.8232C86.4828 19.3628 86.6551 21.0148 86.4463 22.7061C86.0815 25.6898 84.5387 28.3677 82.0742 30.0928C79.7796 31.6998 76.9387 32.3292 74.1846 31.8965C72.9009 31.6913 71.4003 30.9999 70.5928 29.9971L69.2305 36.2852C69.0605 37.0659 68.5597 37.5911 67.8193 37.7373C67.4907 37.8019 67.1256 37.8691 66.7803 37.8691L63.6533 37.8584L68.752 14.3701L73.6641 14.3613L73.2383 16.2949C74.018 15.5532 74.7423 15.0019 75.6836 14.6113ZM24.6875 26.3027C24.961 26.1141 25.3187 26.1208 25.5791 26.3291C26.5364 27.0975 28.0869 27.9762 30.4834 26.8691C30.7828 26.7327 31.141 26.8042 31.3623 27.0645C31.5837 27.3184 31.6101 27.6838 31.4277 27.9639C31.0174 28.5891 29.7602 30.7832 30.7432 32.7236C30.8994 33.0231 30.8219 33.4013 30.5615 33.6357C30.4118 33.7659 30.2292 33.831 30.0469 33.8311C29.9037 33.8311 29.7604 33.7916 29.6367 33.707C28.0673 32.6521 26.5173 32.4963 24.8828 33.2256C24.5769 33.3623 24.212 33.271 23.9971 33.0107L24.0029 33.0234C23.7882 32.7565 23.7751 32.3848 23.9639 32.1113C24.9211 30.7373 25.0714 29.116 24.4072 27.1494C24.303 26.8368 24.414 26.4916 24.6875 26.3027ZM90.8379 16.4658C93.4304 14.2211 96.9641 13.5633 100.286 14.1055C101.486 14.2993 102.562 14.7216 103.584 15.3818C106.68 17.4497 107.479 20.992 106.61 24.5459H92.3643C92.3281 26.035 93.2498 27.3164 94.6338 27.8867C96.6082 28.7014 99.5705 28.3727 100.849 26.333H105.995C104.867 29.0808 102.536 31.0115 99.668 31.6914C97.7578 32.1436 95.7781 32.1767 93.8457 31.7891C92.0189 31.421 90.4009 30.494 89.2285 29.0527C88.1314 27.707 87.6265 26.0889 87.543 24.3555C87.3954 21.3239 88.5516 18.4466 90.8379 16.4658ZM25.9961 28.1396C26.2109 29.3898 26.1134 30.5493 25.7031 31.5977C26.0873 31.513 26.4781 31.4736 26.8623 31.4736C27.6307 31.4736 28.3927 31.636 29.1416 31.9551C28.9333 30.6723 29.2656 29.4419 29.6562 28.5303C28.3668 28.8429 27.1553 28.7124 25.9961 28.1328V28.1396ZM62.7783 29.1846C62.1434 31.2187 60.6896 31.6065 58.7793 31.584L56.6602 31.5615L60.4004 14.3672H66.0215L62.7783 29.1846ZM55.502 14.1309C56.51 13.937 57.5209 13.9967 58.4844 14.3311L57.5293 18.6543L55.499 18.6914C54.3212 18.7139 53.2041 19.0793 52.1934 19.6777C51.0325 20.3689 50.3058 21.4418 49.8965 22.7451L47.9805 31.5537H42.7754L46.4824 14.3672H51.4639L50.8125 17.1934C51.2635 16.4743 51.7704 15.8931 52.4385 15.3818C53.3574 14.73 54.3853 14.3191 55.502 14.1309ZM10.791 9.91113C11.5397 9.91117 12.2884 9.99023 13.0176 10.1465C13.265 10.1921 13.5064 10.25 13.7539 10.3281C14.0013 10.3932 14.249 10.4717 14.5029 10.5693C15.0563 10.7647 15.5963 11.0192 16.0977 11.3057C16.4233 11.4815 16.7428 11.6897 17.0488 11.9111C17.4981 12.2302 17.9088 12.5751 18.2734 12.9268C19.0027 13.6235 19.6278 14.4315 20.1357 15.3105C20.2985 15.584 20.4421 15.8708 20.5723 16.1572C20.6633 16.3459 20.7481 16.5474 20.8262 16.749C20.8652 16.8271 20.9043 16.9314 20.9434 17.042C20.9759 17.1332 21.0143 17.2448 21.0469 17.3555C21.0859 17.4465 21.1253 17.5633 21.1514 17.6934C21.1709 17.7585 21.1908 17.8174 21.1973 17.876C21.2363 17.9932 21.2819 18.1692 21.3145 18.3516C21.4056 18.7227 21.4772 19.1393 21.5293 19.6211C21.5358 19.6992 21.5361 19.7259 21.5361 19.752C21.5556 19.9471 21.5687 20.1747 21.5752 20.4023V20.709C21.5752 20.8391 21.5745 20.9627 21.5615 21.0928V21.1973C21.5615 21.2494 21.5619 21.3018 21.5488 21.3604C21.5423 21.5427 21.5228 21.7771 21.4902 22.0049C21.1646 24.779 19.7769 27.2925 17.5889 29.0703C17.387 29.2331 17.1855 29.39 16.9707 29.5332C16.7689 29.6829 16.5599 29.8128 16.3516 29.9365V29.9434C15.9479 30.1972 15.5439 30.4056 15.1143 30.5879C14.9126 30.6789 14.698 30.7637 14.4834 30.8418C14.288 30.9134 14.0723 30.9847 13.8574 31.0498C12.8612 31.3428 11.826 31.4932 10.7842 31.4932C4.83859 31.4932 8.67154e-05 26.6611 0 20.709C0 14.7568 4.83886 9.91765 10.791 9.91113ZM10.7773 11.8779C5.90629 11.878 1.94727 15.8447 1.94727 20.7158C1.94753 25.5867 5.90645 29.5458 10.7773 29.5459C11.663 29.5459 12.5558 29.4096 13.4219 29.1426C13.6236 29.0775 13.8188 29.0055 14.0205 28.9209C14.2419 28.8428 14.444 28.7513 14.6328 28.6602C15.069 28.4518 15.473 28.2113 15.8506 27.9443C16.0655 27.7946 16.2737 27.6309 16.4756 27.4551C16.723 27.2467 16.9508 27.0319 17.1592 26.8105C18.3835 25.5342 19.1913 23.9451 19.4844 22.2129C19.5365 21.9004 19.5752 21.5941 19.5947 21.2881C19.6142 21.0994 19.6143 20.9042 19.6143 20.709V20.5195L19.6084 20.5264V20.4482C19.5954 20.1489 19.5823 19.9016 19.5498 19.6543C19.5303 19.472 19.5039 19.2828 19.4648 19.1006C19.4453 18.99 19.4254 18.8857 19.3994 18.7881C19.3734 18.6644 19.3538 18.5534 19.3213 18.4492C19.2627 18.2343 19.1976 18.0323 19.126 17.8369C18.9502 17.3095 18.7227 16.8077 18.4492 16.3389C18.0324 15.5965 17.4979 14.9061 16.8467 14.2939C16.2216 13.7015 15.5117 13.2071 14.7305 12.8164C14.457 12.6731 14.1964 12.5554 13.9424 12.4707C13.6819 12.3665 13.4346 12.2816 13.1807 12.21C12.3927 11.9885 11.5849 11.8779 10.7773 11.8779ZM79.167 18.2217C78.0671 17.7918 76.8724 17.7165 75.7168 17.9609C73.333 18.4639 72.4332 20.405 71.918 22.5684C71.723 23.3944 71.6011 24.184 71.668 25.0381C71.8658 27.6592 74.6719 28.3051 76.9219 27.8389C78.5537 27.4989 79.8743 26.4964 80.6484 25.0439C81.832 22.8188 81.9935 19.323 79.167 18.2217ZM10.543 15.4668C10.8295 15.2975 11.2073 15.3431 11.4482 15.584C11.6954 15.8184 11.7476 16.1895 11.585 16.4824V16.4893C10.7776 17.9479 10.8098 19.582 11.6758 21.4639C11.8125 21.7634 11.7411 22.1155 11.4873 22.3369C11.3505 22.4606 11.1739 22.5254 10.998 22.5254C10.8615 22.5253 10.7251 22.4862 10.6016 22.4082C9.56612 21.7505 7.93129 21.0345 5.66504 22.3955C5.37856 22.5713 5.01406 22.5322 4.7666 22.2979C4.51914 22.0634 4.45373 21.7048 4.60352 21.4053C4.94229 20.7407 5.95752 18.4228 4.77246 16.5996C4.58375 16.3131 4.61652 15.9284 4.85742 15.668C5.09187 15.4141 5.47004 15.3428 5.76953 15.499C7.43657 16.3715 8.99964 16.3654 10.543 15.4668ZM100.979 18.6855C99.7932 17.6462 97.7108 17.5397 96.2656 17.9414C94.7256 18.3685 93.4915 19.478 92.9707 21.0654L101.988 21.0596C102.041 20.0397 101.648 19.2699 100.979 18.6855ZM9.91113 17.1729C8.78452 17.531 7.61197 17.5313 6.44629 17.1797C6.79125 18.4363 6.59018 19.6929 6.30371 20.6436C6.9286 20.4158 7.54047 20.3047 8.15234 20.3047V20.3115C8.76445 20.3115 9.37683 20.4225 9.98242 20.6504C9.63729 19.4261 9.6116 18.2604 9.91113 17.1729ZM35.3613 5.7959C35.3875 6.05746 35.9789 12.3081 32.085 16.749C31.7333 17.1463 31.3556 17.5175 30.9648 17.8496L30.7959 17.9932L30.6006 17.8887C30.1774 17.6608 29.7344 17.4593 29.2852 17.29L28.7314 17.0811L29.207 16.7295C29.6953 16.3583 30.1644 15.9284 30.5811 15.4531C33.0033 12.7052 33.388 8.96118 33.4141 7.11816C30.158 7.8866 27.6047 9.29339 25.8203 11.3057C25.6055 11.54 25.4169 11.7745 25.2412 12.0088C25.0068 12.3148 24.7985 12.6275 24.6162 12.9336C23.9585 14.0081 23.476 15.2126 23.1895 16.5215L23.1436 16.7363L22.9287 16.7754C22.7076 16.8144 22.4929 16.8663 22.2783 16.9248C22.1481 16.9574 22.0436 16.9841 21.9395 17.0166L21.6396 17.1006L21.5352 16.8076C21.4831 16.6515 21.4182 16.4888 21.3467 16.3262L21.2949 16.1895L21.3076 16.0596C21.4444 15.4604 21.6201 14.8605 21.835 14.2744L21.8545 14.21C22.1085 13.5522 22.3951 12.9198 22.7207 12.3271L22.7139 12.3145C23.072 11.6763 23.4891 11.0575 23.958 10.4648C24.1402 10.2436 24.3227 10.0224 24.5244 9.80762C24.6937 9.61883 24.8828 9.43 25.0781 9.24121C27.3118 7.06613 30.3795 5.60729 34.2021 4.91699L35.2568 4.72168L35.3613 5.7959ZM67.1865 11.1309C66.997 11.9594 66.3208 12.4231 65.4717 12.499L60.7627 12.5068L61.2725 10.2598C61.4256 9.5967 61.8344 9.04558 62.3496 8.62695C63.0792 8.14932 63.8926 7.89917 64.7754 7.89355L67.9307 7.87988L67.1865 11.1309ZM16.293 0.442383C16.3451 0.468431 22.2058 3.13241 24.1074 8.79785L24.2246 9.17578L24.1016 9.3125C23.7564 9.69672 23.4106 10.1132 23.085 10.5625L22.6494 11.1621L22.499 10.4395C22.4339 10.1334 22.3428 9.80707 22.2256 9.44238C21.0598 5.94554 18.0186 3.73818 16.4492 2.79395C15.6678 5.34012 15.4592 7.72377 15.8369 9.88574L15.9414 10.4912L15.3818 10.2373C14.9261 10.029 14.4701 9.85908 14.0273 9.73535L13.8184 9.67676H13.8125L13.7861 9.46191C13.4606 6.86371 13.8514 4.01818 14.9453 1.00977L15.3164 0L16.293 0.442383Z" fill="white"/>
</svg>
